<svg width="25" height="24" viewBox="0 0 25 24" fill="none" xmlns="http://www.w3.org/2000/svg">
<path d="M4.5 5H7.5L9.5 3H15.5L17.5 5H20.5C21.0304 5 21.5391 5.21071 21.9142 5.58579C22.2893 5.96086 22.5 6.46957 22.5 7V19C22.5 19.5304 22.2893 20.0391 21.9142 20.4142C21.5391 20.7893 21.0304 21 20.5 21H4.5C3.96957 21 3.46086 20.7893 3.08579 20.4142C2.71071 20.0391 2.5 19.5304 2.5 19V7C2.5 6.46957 2.71071 5.96086 3.08579 5.58579C3.46086 5.21071 3.96957 5 4.5 5ZM12.5 8C11.1739 8 9.90215 8.52678 8.96447 9.46447C8.02678 10.4021 7.5 11.6739 7.5 13C7.5 14.3261 8.02678 15.5979 8.96447 16.5355C9.90215 17.4732 11.1739 18 12.5 18C13.8261 18 15.0979 17.4732 16.0355 16.5355C16.9732 15.5979 17.5 14.3261 17.5 13C17.5 11.6739 16.9732 10.4021 16.0355 9.46447C15.0979 8.52678 13.8261 8 12.5 8ZM12.5 10C13.2956 10 14.0587 10.3161 14.6213 10.8787C15.1839 11.4413 15.5 12.2044 15.5 13C15.5 13.7956 15.1839 14.5587 14.6213 15.1213C14.0587 15.6839 13.2956 16 12.5 16C11.7044 16 10.9413 15.6839 10.3787 15.1213C9.81607 14.5587 9.5 13.7956 9.5 13C9.5 12.2044 9.81607 11.4413 10.3787 10.8787C10.9413 10.3161 11.7044 10 12.5 10Z" fill="white"/>
</svg>
