<svg width="35" height="34" viewBox="0 0 35 34" fill="none" xmlns="http://www.w3.org/2000/svg">
<circle cx="17.5" cy="17" r="16.5" fill="#C6C6C6" stroke="#C6C6C6"/>
<path d="M9.5 10H12.5L14.5 8H20.5L22.5 10H25.5C26.0304 10 26.5391 10.2107 26.9142 10.5858C27.2893 10.9609 27.5 11.4696 27.5 12V24C27.5 24.5304 27.2893 25.0391 26.9142 25.4142C26.5391 25.7893 26.0304 26 25.5 26H9.5C8.96957 26 8.46086 25.7893 8.08579 25.4142C7.71071 25.0391 7.5 24.5304 7.5 24V12C7.5 11.4696 7.71071 10.9609 8.08579 10.5858C8.46086 10.2107 8.96957 10 9.5 10ZM17.5 13C16.1739 13 14.9021 13.5268 13.9645 14.4645C13.0268 15.4021 12.5 16.6739 12.5 18C12.5 19.3261 13.0268 20.5979 13.9645 21.5355C14.9021 22.4732 16.1739 23 17.5 23C18.8261 23 20.0979 22.4732 21.0355 21.5355C21.9732 20.5979 22.5 19.3261 22.5 18C22.5 16.6739 21.9732 15.4021 21.0355 14.4645C20.0979 13.5268 18.8261 13 17.5 13ZM17.5 15C18.2956 15 19.0587 15.3161 19.6213 15.8787C20.1839 16.4413 20.5 17.2044 20.5 18C20.5 18.7956 20.1839 19.5587 19.6213 20.1213C19.0587 20.6839 18.2956 21 17.5 21C16.7044 21 15.9413 20.6839 15.3787 20.1213C14.8161 19.5587 14.5 18.7956 14.5 18C14.5 17.2044 14.8161 16.4413 15.3787 15.8787C15.9413 15.3161 16.7044 15 17.5 15Z" fill="white"/>
</svg>
