<svg width="73" height="73" viewBox="0 0 73 73" fill="none" xmlns="http://www.w3.org/2000/svg">
<rect width="73" height="74" transform="translate(0 -1)" fill="white"/>
<path d="M28 24L37 17L46 24V35C46 35.5304 45.7893 36.0391 45.4142 36.4142C45.0391 36.7893 44.5304 37 44 37H30C29.4696 37 28.9609 36.7893 28.5858 36.4142C28.2107 36.0391 28 35.5304 28 35V24Z" fill="#D9D9D9"/>
<path d="M34 37V27H40V37" fill="white"/>
<path d="M33.2685 51.696H40.6725V54.792H33.2685V51.696ZM39.7005 52.464H34.2525V54.036H39.7005V52.464ZM32.5845 44.976H41.3085V45.756H32.5845V44.976ZM36.9765 46.188C39.2085 46.188 40.4805 46.716 40.4805 47.724C40.4805 48.732 39.2085 49.26 36.9765 49.26C34.7325 49.26 33.4725 48.732 33.4725 47.724C33.4725 46.716 34.7325 46.188 36.9765 46.188ZM36.9765 46.884C35.4045 46.884 34.5285 47.184 34.5285 47.724C34.5285 48.264 35.4045 48.564 36.9765 48.564C38.5365 48.564 39.4125 48.264 39.4125 47.724C39.4125 47.184 38.5365 46.884 36.9765 46.884ZM36.4845 43.932H37.4685V45.48H36.4845V43.932ZM32.0685 50.088H41.8725V50.868H32.0685V50.088ZM36.4845 49.02H37.4685V50.52H36.4845V49.02Z" fill="#999999"/>
</svg>
