<svg width="74" height="73" viewBox="0 0 74 73" fill="none" xmlns="http://www.w3.org/2000/svg">
<rect width="74" height="74" transform="translate(0 -1)" fill="white"/>
<path d="M28.9134 44.076H29.9094V54.948H28.9134V44.076ZM24.1854 44.916C25.7934 44.916 26.9454 46.392 26.9454 48.696C26.9454 51.012 25.7934 52.488 24.1854 52.488C22.5894 52.488 21.4374 51.012 21.4374 48.696C21.4374 46.392 22.5894 44.916 24.1854 44.916ZM24.1854 45.816C23.1294 45.816 22.3854 46.944 22.3854 48.696C22.3854 50.46 23.1294 51.612 24.1854 51.612C25.2534 51.612 25.9854 50.46 25.9854 48.696C25.9854 46.944 25.2534 45.816 24.1854 45.816ZM40.2645 44.088H41.2125V52.32H40.2645V44.088ZM36.4605 47.232H38.5125V48.048H36.4605V47.232ZM38.2005 44.304H39.1485V52.008H38.2005V44.304ZM32.5605 44.952H33.4965V46.776H35.8125V44.952H36.7605V50.268H32.5605V44.952ZM33.4965 47.568V49.464H35.8125V47.568H33.4965ZM34.1445 53.88H41.5485V54.696H34.1445V53.88ZM34.1445 51.216H35.1405V54.324H34.1445V51.216ZM44.3795 49.932H51.8315V50.736H44.3795V49.932ZM43.1195 52.716H52.9475V53.544H43.1195V52.716ZM44.3795 45.012H51.7115V45.828H45.3875V50.184H44.3795V45.012ZM45.0635 47.436H51.4835V48.228H45.0635V47.436Z" fill="#999999"/>
<path d="M46 26V36H30V26" fill="#D9D9D9"/>
<path d="M46 26V36H30V26" stroke="white" stroke-linecap="round" stroke-linejoin="round"/>
<path d="M48 21H28V26H48V21Z" fill="#D9D9D9" stroke="white" stroke-linecap="round" stroke-linejoin="round"/>
<path d="M38 36V21" stroke="white" stroke-linecap="round" stroke-linejoin="round"/>
<path d="M38 21H33.5C32.837 21 32.2011 20.7366 31.7322 20.2678C31.2634 19.7989 31 19.163 31 18.5C31 17.837 31.2634 17.2011 31.7322 16.7322C32.2011 16.2634 32.837 16 33.5 16C37 16 38 21 38 21Z" fill="#D9D9D9" stroke="white" stroke-linecap="round" stroke-linejoin="round"/>
<path d="M38 21H42.5C43.163 21 43.7989 20.7366 44.2678 20.2678C44.7366 19.7989 45 19.163 45 18.5C45 17.837 44.7366 17.2011 44.2678 16.7322C43.7989 16.2634 43.163 16 42.5 16C39 16 38 21 38 21Z" fill="#D9D9D9" stroke="white" stroke-linecap="round" stroke-linejoin="round"/>
</svg>
