<svg width="73" height="73" viewBox="0 0 73 73" fill="none" xmlns="http://www.w3.org/2000/svg">
<rect width="73" height="74" transform="translate(0 -1)" fill="white"/>
<path d="M10.4223 45.168H15.4023V52.188H10.4223V45.168ZM14.4303 45.972H11.3943V51.384H14.4303V45.972ZM17.3343 44.088H18.3423V54.936H17.3343V44.088ZM18.1023 48.42H20.1183V49.26H18.1023V48.42ZM28.9134 44.076H29.9094V54.948H28.9134V44.076ZM24.1854 44.916C25.7934 44.916 26.9454 46.392 26.9454 48.696C26.9454 51.012 25.7934 52.488 24.1854 52.488C22.5894 52.488 21.4374 51.012 21.4374 48.696C21.4374 46.392 22.5894 44.916 24.1854 44.916ZM24.1854 45.816C23.1294 45.816 22.3854 46.944 22.3854 48.696C22.3854 50.46 23.1294 51.612 24.1854 51.612C25.2534 51.612 25.9854 50.46 25.9854 48.696C25.9854 46.944 25.2534 45.816 24.1854 45.816ZM40.3845 44.088H41.3445V54.936H40.3845V44.088ZM36.8085 48.216H38.6085V49.092H36.8085V48.216ZM38.2845 44.352H39.2325V54.372H38.2845V44.352ZM32.1765 45.456H37.1325V46.272H32.1765V45.456ZM32.0805 52.272L31.9605 51.432C33.3645 51.432 35.7165 51.384 37.3605 51.168L37.4325 51.9C35.7405 52.224 33.4725 52.272 32.0805 52.272ZM33.0645 45.984H33.9765V51.66H33.0645V45.984ZM35.3205 45.984H36.2325V51.66H35.3205V45.984ZM50.9915 44.076H51.9875V54.948H50.9915V44.076ZM46.2635 44.916C47.8715 44.916 49.0235 46.392 49.0235 48.696C49.0235 51.012 47.8715 52.488 46.2635 52.488C44.6675 52.488 43.5155 51.012 43.5155 48.696C43.5155 46.392 44.6675 44.916 46.2635 44.916ZM46.2635 45.816C45.2075 45.816 44.4635 46.944 44.4635 48.696C44.4635 50.46 45.2075 51.612 46.2635 51.612C47.3315 51.612 48.0635 50.46 48.0635 48.696C48.0635 46.944 47.3315 45.816 46.2635 45.816ZM57.0266 45.636H57.8306V47.4C57.8306 49.692 56.4506 51.996 54.7226 52.848L54.1466 52.056C55.7186 51.312 57.0266 49.272 57.0266 47.4V45.636ZM57.2186 45.636H58.0226V47.4C58.0226 49.236 59.3306 51.108 60.9266 51.792L60.3626 52.584C58.6106 51.768 57.2186 49.656 57.2186 47.4V45.636ZM54.5066 45.192H60.5666V46.032H54.5066V45.192ZM62.0306 44.088H63.0266V54.936H62.0306V44.088Z" fill="#999999"/>
<path d="M46 36V34C46 32.9391 45.5786 31.9217 44.8284 31.1716C44.0783 30.4214 43.0609 30 42 30H34C32.9391 30 31.9217 30.4214 31.1716 31.1716C30.4214 31.9217 30 32.9391 30 34V36" fill="#D9D9D9"/>
<path d="M46 36V34C46 32.9391 45.5786 31.9217 44.8284 31.1716C44.0783 30.4214 43.0609 30 42 30H34C32.9391 30 31.9217 30.4214 31.1716 31.1716C30.4214 31.9217 30 32.9391 30 34V36" stroke="#D9D9D9" stroke-width="2" stroke-linecap="round" stroke-linejoin="round"/>
<path d="M38 26C40.2091 26 42 24.2091 42 22C42 19.7909 40.2091 18 38 18C35.7909 18 34 19.7909 34 22C34 24.2091 35.7909 26 38 26Z" fill="#D9D9D9" stroke="#D9D9D9" stroke-width="2" stroke-linecap="round" stroke-linejoin="round"/>
</svg>
