<svg width="73" height="73" viewBox="0 0 73 73" fill="none" xmlns="http://www.w3.org/2000/svg">
<rect width="73" height="74" transform="translate(0 -1)" fill="white"/>
<path d="M23.9214 44.916C25.5174 44.916 26.6454 46.392 26.6454 48.696C26.6454 51.012 25.5174 52.488 23.9214 52.488C22.3254 52.488 21.1974 51.012 21.1974 48.696C21.1974 46.392 22.3254 44.916 23.9214 44.916ZM23.9214 45.816C22.8654 45.816 22.1454 46.944 22.1454 48.696C22.1454 50.46 22.8654 51.612 23.9214 51.612C24.9654 51.612 25.6974 50.46 25.6974 48.696C25.6974 46.944 24.9654 45.816 23.9214 45.816ZM28.3734 44.088H29.3814V54.936H28.3734V44.088ZM29.1414 48.42H31.1574V49.26H29.1414V48.42ZM32.7645 51.504H33.6285C35.6565 51.504 37.0725 51.444 38.7405 51.168L38.8365 51.972C37.1325 52.272 35.6925 52.332 33.6285 52.332H32.7645V51.504ZM32.7645 45.072H38.0205V45.9H33.7485V51.792H32.7645V45.072ZM33.5085 48.108H37.6245V48.912H33.5085V48.108ZM39.9765 44.088H40.9725V54.936H39.9765V44.088ZM44.3675 44.592H51.3515V45.396H44.3675V44.592ZM50.7035 44.592H51.6755V45.432C51.6755 46.332 51.6755 47.4 51.3635 48.828L50.3795 48.72C50.7035 47.316 50.7035 46.32 50.7035 45.432V44.592ZM50.9795 46.428V47.136L44.2235 47.436L44.0915 46.644L50.9795 46.428ZM43.1195 48.528H52.9115V49.32H43.1195V48.528ZM44.2595 50.352H51.7595V52.884H45.2675V54.348H44.2835V52.14H50.7755V51.12H44.2595V50.352ZM44.2835 54.012H52.1315V54.792H44.2835V54.012Z" fill="#999999"/>
<path d="M35 18H28V25H35V18Z" fill="#D9D9D9" stroke="#D9D9D9" stroke-linecap="round" stroke-linejoin="round"/>
<path d="M46 18H39V25H46V18Z" fill="#D9D9D9" stroke="#D9D9D9" stroke-linecap="round" stroke-linejoin="round"/>
<path d="M46 29H39V36H46V29Z" fill="#D9D9D9" stroke="#D9D9D9" stroke-linecap="round" stroke-linejoin="round"/>
<path d="M35 29H28V36H35V29Z" fill="#D9D9D9" stroke="#D9D9D9" stroke-linecap="round" stroke-linejoin="round"/>
</svg>
