<svg width="73" height="73" viewBox="0 0 73 73" fill="none" xmlns="http://www.w3.org/2000/svg">
<rect width="73" height="74" transform="translate(0 -1)" fill="white"/>
<path d="M10.4343 45.168H15.4143V52.176H10.4343V45.168ZM14.4303 45.96H11.4063V51.372H14.4303V45.96ZM17.3463 44.076H18.3423V54.936H17.3463V44.076ZM18.1143 48.408H20.1183V49.248H18.1143V48.408ZM28.9254 44.076H29.9214V54.948H28.9254V44.076ZM24.1974 44.916C24.7334 44.916 25.2054 45.072 25.6134 45.384C26.0294 45.688 26.3534 46.124 26.5854 46.692C26.8254 47.26 26.9454 47.928 26.9454 48.696C26.9454 49.464 26.8254 50.132 26.5854 50.7C26.3534 51.268 26.0294 51.708 25.6134 52.02C25.2054 52.332 24.7334 52.488 24.1974 52.488C23.6614 52.488 23.1854 52.332 22.7694 52.02C22.3534 51.708 22.0254 51.268 21.7854 50.7C21.5534 50.132 21.4374 49.464 21.4374 48.696C21.4374 47.928 21.5534 47.26 21.7854 46.692C22.0254 46.124 22.3534 45.688 22.7694 45.384C23.1854 45.072 23.6614 44.916 24.1974 44.916ZM24.1974 45.804C23.8374 45.804 23.5214 45.924 23.2494 46.164C22.9854 46.396 22.7774 46.732 22.6254 47.172C22.4734 47.604 22.3974 48.112 22.3974 48.696C22.3974 49.28 22.4734 49.792 22.6254 50.232C22.7774 50.664 22.9854 51 23.2494 51.24C23.5214 51.48 23.8374 51.6 24.1974 51.6C24.5494 51.6 24.8574 51.48 25.1214 51.24C25.3934 51 25.6054 50.664 25.7574 50.232C25.9094 49.792 25.9854 49.28 25.9854 48.696C25.9854 48.112 25.9094 47.604 25.7574 47.172C25.6054 46.732 25.3934 46.396 25.1214 46.164C24.8574 45.924 24.5494 45.804 24.1974 45.804ZM40.3845 44.076H41.3445V54.936H40.3845V44.076ZM36.8205 48.204H38.6085V49.092H36.8205V48.204ZM38.2845 44.34H39.2325V54.36H38.2845V44.34ZM32.1885 45.456H37.1325V46.272H32.1885V45.456ZM32.0805 52.26L31.9605 51.42C32.3205 51.42 32.7245 51.42 33.1725 51.42C33.6205 51.412 34.0885 51.4 34.5765 51.384C35.0645 51.36 35.5485 51.332 36.0285 51.3C36.5085 51.26 36.9565 51.212 37.3725 51.156L37.4445 51.9C36.8765 52.004 36.2645 52.084 35.6085 52.14C34.9605 52.188 34.3285 52.22 33.7125 52.236C33.0965 52.252 32.5525 52.26 32.0805 52.26ZM33.0765 45.984H33.9885V51.66H33.0765V45.984ZM35.3205 45.984H36.2445V51.66H35.3205V45.984ZM51.0035 44.076H51.9995V54.948H51.0035V44.076ZM46.2755 44.916C46.8115 44.916 47.2835 45.072 47.6915 45.384C48.1075 45.688 48.4315 46.124 48.6635 46.692C48.9035 47.26 49.0235 47.928 49.0235 48.696C49.0235 49.464 48.9035 50.132 48.6635 50.7C48.4315 51.268 48.1075 51.708 47.6915 52.02C47.2835 52.332 46.8115 52.488 46.2755 52.488C45.7395 52.488 45.2635 52.332 44.8475 52.02C44.4315 51.708 44.1035 51.268 43.8635 50.7C43.6315 50.132 43.5155 49.464 43.5155 48.696C43.5155 47.928 43.6315 47.26 43.8635 46.692C44.1035 46.124 44.4315 45.688 44.8475 45.384C45.2635 45.072 45.7395 44.916 46.2755 44.916ZM46.2755 45.804C45.9155 45.804 45.5995 45.924 45.3275 46.164C45.0635 46.396 44.8555 46.732 44.7035 47.172C44.5515 47.604 44.4755 48.112 44.4755 48.696C44.4755 49.28 44.5515 49.792 44.7035 50.232C44.8555 50.664 45.0635 51 45.3275 51.24C45.5995 51.48 45.9155 51.6 46.2755 51.6C46.6275 51.6 46.9355 51.48 47.1995 51.24C47.4715 51 47.6835 50.664 47.8355 50.232C47.9875 49.792 48.0635 49.28 48.0635 48.696C48.0635 48.112 47.9875 47.604 47.8355 47.172C47.6835 46.732 47.4715 46.396 47.1995 46.164C46.9355 45.924 46.6275 45.804 46.2755 45.804ZM57.0266 45.636H57.8426V47.388C57.8426 47.964 57.7626 48.532 57.6026 49.092C57.4426 49.644 57.2186 50.168 56.9306 50.664C56.6506 51.152 56.3226 51.584 55.9466 51.96C55.5706 52.336 55.1666 52.632 54.7346 52.848L54.1586 52.056C54.5506 51.864 54.9186 51.604 55.2626 51.276C55.6146 50.948 55.9226 50.572 56.1866 50.148C56.4506 49.724 56.6546 49.276 56.7986 48.804C56.9506 48.332 57.0266 47.86 57.0266 47.388V45.636ZM57.2306 45.636H58.0346V47.388C58.0346 47.844 58.1066 48.3 58.2506 48.756C58.4026 49.204 58.6106 49.628 58.8746 50.028C59.1466 50.42 59.4546 50.768 59.7986 51.072C60.1506 51.376 60.5266 51.616 60.9266 51.792L60.3746 52.584C59.9346 52.376 59.5226 52.096 59.1386 51.744C58.7546 51.392 58.4186 50.988 58.1306 50.532C57.8506 50.068 57.6306 49.572 57.4706 49.044C57.3106 48.508 57.2306 47.956 57.2306 47.388V45.636ZM54.5066 45.192H60.5666V46.02H54.5066V45.192ZM62.0426 44.076H63.0386V54.936H62.0426V44.076Z" fill="#999999"/>
<path d="M46 36V34C46 32.9391 45.5786 31.9217 44.8284 31.1716C44.0783 30.4214 43.0609 30 42 30H34C32.9391 30 31.9217 30.4214 31.1716 31.1716C30.4214 31.9217 30 32.9391 30 34V36" fill="#FF616D"/>
<path d="M46 36V34C46 32.9391 45.5786 31.9217 44.8284 31.1716C44.0783 30.4214 43.0609 30 42 30H34C32.9391 30 31.9217 30.4214 31.1716 31.1716C30.4214 31.9217 30 32.9391 30 34V36" stroke="#FF616D" stroke-width="2" stroke-linecap="round" stroke-linejoin="round"/>
<path d="M38 26C40.2091 26 42 24.2091 42 22C42 19.7909 40.2091 18 38 18C35.7909 18 34 19.7909 34 22C34 24.2091 35.7909 26 38 26Z" fill="#FF616D" stroke="#FF616D" stroke-width="2" stroke-linecap="round" stroke-linejoin="round"/>
</svg>
