<svg width="74" height="73" viewBox="0 0 74 73" fill="none" xmlns="http://www.w3.org/2000/svg">
<rect width="74" height="74" transform="translate(0 -1)" fill="white"/>
<path d="M28.9254 44.076H29.9214V54.948H28.9254V44.076ZM24.1974 44.916C24.7334 44.916 25.2054 45.072 25.6134 45.384C26.0294 45.688 26.3534 46.124 26.5854 46.692C26.8254 47.26 26.9454 47.928 26.9454 48.696C26.9454 49.464 26.8254 50.132 26.5854 50.7C26.3534 51.268 26.0294 51.708 25.6134 52.02C25.2054 52.332 24.7334 52.488 24.1974 52.488C23.6614 52.488 23.1854 52.332 22.7694 52.02C22.3534 51.708 22.0254 51.268 21.7854 50.7C21.5534 50.132 21.4374 49.464 21.4374 48.696C21.4374 47.928 21.5534 47.26 21.7854 46.692C22.0254 46.124 22.3534 45.688 22.7694 45.384C23.1854 45.072 23.6614 44.916 24.1974 44.916ZM24.1974 45.804C23.8374 45.804 23.5214 45.924 23.2494 46.164C22.9854 46.396 22.7774 46.732 22.6254 47.172C22.4734 47.604 22.3974 48.112 22.3974 48.696C22.3974 49.28 22.4734 49.792 22.6254 50.232C22.7774 50.664 22.9854 51 23.2494 51.24C23.5214 51.48 23.8374 51.6 24.1974 51.6C24.5494 51.6 24.8574 51.48 25.1214 51.24C25.3934 51 25.6054 50.664 25.7574 50.232C25.9094 49.792 25.9854 49.28 25.9854 48.696C25.9854 48.112 25.9094 47.604 25.7574 47.172C25.6054 46.732 25.3934 46.396 25.1214 46.164C24.8574 45.924 24.5494 45.804 24.1974 45.804ZM40.2765 44.076H41.2245V52.32H40.2765V44.076ZM36.4725 47.22H38.5125V48.036H36.4725V47.22ZM38.2005 44.292H39.1485V51.996H38.2005V44.292ZM32.5605 44.952H33.5085V46.776H35.8245V44.952H36.7605V50.268H32.5605V44.952ZM33.5085 47.556V49.452H35.8245V47.556H33.5085ZM34.1445 53.88H41.5485V54.696H34.1445V53.88ZM34.1445 51.216H35.1405V54.312H34.1445V51.216ZM44.3795 49.932H51.8315V50.736H44.3795V49.932ZM43.1195 52.704H52.9595V53.532H43.1195V52.704ZM44.3795 45.012H51.7235V45.828H45.3875V50.172H44.3795V45.012ZM45.0755 47.424H51.4835V48.228H45.0755V47.424Z" fill="#999999"/>
<path d="M46 26V36H30V26" fill="#FF616D"/>
<path d="M46 26V36H30V26" stroke="white" stroke-linecap="round" stroke-linejoin="round"/>
<path d="M48 21H28V26H48V21Z" fill="#FF616D" stroke="white" stroke-linecap="round" stroke-linejoin="round"/>
<path d="M38 36V21" stroke="white" stroke-linecap="round" stroke-linejoin="round"/>
<path d="M38 21H33.5C32.837 21 32.2011 20.7366 31.7322 20.2678C31.2634 19.7989 31 19.163 31 18.5C31 17.837 31.2634 17.2011 31.7322 16.7322C32.2011 16.2634 32.837 16 33.5 16C37 16 38 21 38 21Z" fill="#FF616D" stroke="white" stroke-linecap="round" stroke-linejoin="round"/>
<path d="M38 21H42.5C43.163 21 43.7989 20.7366 44.2678 20.2678C44.7366 19.7989 45 19.163 45 18.5C45 17.837 44.7366 17.2011 44.2678 16.7322C43.7989 16.2634 43.163 16 42.5 16C39 16 38 21 38 21Z" fill="#FF616D" stroke="white" stroke-linecap="round" stroke-linejoin="round"/>
</svg>
