<svg width="73" height="71" viewBox="0 0 73 71" fill="none" xmlns="http://www.w3.org/2000/svg">
<rect width="73" height="74" transform="translate(0 -1)" fill="white"/>
<path d="M28 24L37 17L46 24V35C46 35.5304 45.7893 36.0391 45.4142 36.4142C45.0391 36.7893 44.5304 37 44 37H30C29.4696 37 28.9609 36.7893 28.5858 36.4142C28.2107 36.0391 28 35.5304 28 35V24Z" fill="#FF616D"/>
<path d="M34 37V27H40V37" fill="white"/>
<path d="M33.2805 51.696H40.6845V54.792H33.2805V51.696ZM39.7125 52.452H34.2525V54.024H39.7125V52.452ZM32.5965 44.976H41.3205V45.756H32.5965V44.976ZM36.9765 46.188C38.1045 46.188 38.9685 46.32 39.5685 46.584C40.1765 46.84 40.4805 47.22 40.4805 47.724C40.4805 48.228 40.1765 48.612 39.5685 48.876C38.9685 49.132 38.1045 49.26 36.9765 49.26C35.8645 49.26 35.0005 49.132 34.3845 48.876C33.7765 48.612 33.4725 48.228 33.4725 47.724C33.4725 47.22 33.7765 46.84 34.3845 46.584C35.0005 46.32 35.8645 46.188 36.9765 46.188ZM36.9765 46.884C36.2005 46.884 35.5965 46.956 35.1645 47.1C34.7405 47.244 34.5285 47.452 34.5285 47.724C34.5285 47.996 34.7405 48.204 35.1645 48.348C35.5965 48.492 36.2005 48.564 36.9765 48.564C37.7605 48.564 38.3645 48.492 38.7885 48.348C39.2125 48.204 39.4245 47.996 39.4245 47.724C39.4245 47.452 39.2125 47.244 38.7885 47.1C38.3645 46.956 37.7605 46.884 36.9765 46.884ZM36.4845 43.92H37.4805V45.48H36.4845V43.92ZM32.0805 50.076H41.8845V50.868H32.0805V50.076ZM36.4845 49.008H37.4805V50.52H36.4845V49.008Z" fill="#999999"/>
</svg>
