<svg width="73" height="73" viewBox="0 0 73 73" fill="none" xmlns="http://www.w3.org/2000/svg">
<rect width="73" height="74" transform="translate(0 -1)" fill="white"/>
<path d="M23.9214 44.916C24.4574 44.916 24.9294 45.072 25.3374 45.384C25.7454 45.688 26.0654 46.124 26.2974 46.692C26.5294 47.26 26.6454 47.928 26.6454 48.696C26.6454 49.464 26.5294 50.132 26.2974 50.7C26.0654 51.268 25.7454 51.708 25.3374 52.02C24.9294 52.332 24.4574 52.488 23.9214 52.488C23.3934 52.488 22.9214 52.332 22.5054 52.02C22.0974 51.708 21.7774 51.268 21.5454 50.7C21.3134 50.132 21.1974 49.464 21.1974 48.696C21.1974 47.928 21.3134 47.26 21.5454 46.692C21.7774 46.124 22.0974 45.688 22.5054 45.384C22.9214 45.072 23.3934 44.916 23.9214 44.916ZM23.9214 45.804C23.5774 45.804 23.2694 45.924 22.9974 46.164C22.7334 46.396 22.5254 46.732 22.3734 47.172C22.2214 47.604 22.1454 48.112 22.1454 48.696C22.1454 49.28 22.2214 49.792 22.3734 50.232C22.5254 50.664 22.7334 51 22.9974 51.24C23.2694 51.48 23.5814 51.6 23.9334 51.6C24.2774 51.6 24.5814 51.48 24.8454 51.24C25.1174 51 25.3254 50.664 25.4694 50.232C25.6214 49.792 25.6974 49.28 25.6974 48.696C25.6974 48.112 25.6214 47.604 25.4694 47.172C25.3254 46.732 25.1174 46.396 24.8454 46.164C24.5814 45.924 24.2734 45.804 23.9214 45.804ZM28.3854 44.076H29.3814V54.936H28.3854V44.076ZM29.1534 48.408H31.1574V49.248H29.1534V48.408ZM32.7645 51.492H33.6285C34.3085 51.492 34.9285 51.484 35.4885 51.468C36.0565 51.452 36.6005 51.42 37.1205 51.372C37.6485 51.324 38.1885 51.252 38.7405 51.156L38.8485 51.972C38.2805 52.068 37.7285 52.144 37.1925 52.2C36.6565 52.248 36.1005 52.28 35.5245 52.296C34.9565 52.312 34.3245 52.32 33.6285 52.32H32.7645V51.492ZM32.7645 45.06H38.0205V45.888H33.7485V51.78H32.7645V45.06ZM33.5085 48.108H37.6245V48.912H33.5085V48.108ZM39.9885 44.076H40.9845V54.936H39.9885V44.076ZM44.3675 44.592H51.3515V45.396H44.3675V44.592ZM50.7035 44.592H51.6875V45.42C51.6875 45.876 51.6715 46.38 51.6395 46.932C51.6155 47.476 51.5235 48.108 51.3635 48.828L50.3915 48.72C50.5515 48.016 50.6435 47.404 50.6675 46.884C50.6915 46.356 50.7035 45.868 50.7035 45.42V44.592ZM50.9915 46.416V47.124L44.2355 47.424L44.1035 46.632L50.9915 46.416ZM43.1315 48.516H52.9115V49.32H43.1315V48.516ZM44.2715 50.34H51.7595V52.872H45.2795V54.336H44.2955V52.128H50.7755V51.12H44.2715V50.34ZM44.2955 54H52.1435V54.792H44.2955V54Z" fill="#999999"/>
<path d="M35 18H28V25H35V18Z" fill="#FF616D" stroke="#FF616D" stroke-linecap="round" stroke-linejoin="round"/>
<path d="M46 18H39V25H46V18Z" fill="#FF616D" stroke="#FF616D" stroke-linecap="round" stroke-linejoin="round"/>
<path d="M46 29H39V36H46V29Z" fill="#FF616D" stroke="#FF616D" stroke-linecap="round" stroke-linejoin="round"/>
<path d="M35 29H28V36H35V29Z" fill="#FF616D" stroke="#FF616D" stroke-linecap="round" stroke-linejoin="round"/>
</svg>
