<svg width="73" height="73" viewBox="0 0 73 73" fill="none" xmlns="http://www.w3.org/2000/svg">
<rect width="73" height="74" transform="translate(0 -1)" fill="white"/>
<path d="M29.2644 51.2727H30.4235L31.3951 52.5511L31.6507 52.892L33.0996 54.8182H31.9405L30.986 53.5398L30.7473 53.2159L29.2644 51.2727ZM33.4576 49.6364C33.4576 50.5568 33.2914 51.3523 32.959 52.0227C32.6266 52.6932 32.1706 53.2102 31.5911 53.5739C31.0115 53.9375 30.3496 54.1193 29.6053 54.1193C28.861 54.1193 28.199 53.9375 27.6195 53.5739C27.04 53.2102 26.584 52.6932 26.2516 52.0227C25.9192 51.3523 25.753 50.5568 25.753 49.6364C25.753 48.7159 25.9192 47.9205 26.2516 47.25C26.584 46.5795 27.04 46.0625 27.6195 45.6989C28.199 45.3352 28.861 45.1534 29.6053 45.1534C30.3496 45.1534 31.0115 45.3352 31.5911 45.6989C32.1706 46.0625 32.6266 46.5795 32.959 47.25C33.2914 47.9205 33.4576 48.7159 33.4576 49.6364ZM32.4348 49.6364C32.4348 48.8807 32.3084 48.2429 32.0556 47.723C31.8056 47.2031 31.4661 46.8097 31.0371 46.5426C30.611 46.2756 30.1337 46.142 29.6053 46.142C29.0769 46.142 28.5982 46.2756 28.1692 46.5426C27.7431 46.8097 27.4036 47.2031 27.1507 47.723C26.9007 48.2429 26.7757 48.8807 26.7757 49.6364C26.7757 50.392 26.9007 51.0298 27.1507 51.5497C27.4036 52.0696 27.7431 52.4631 28.1692 52.7301C28.5982 52.9972 29.0769 53.1307 29.6053 53.1307C30.1337 53.1307 30.611 52.9972 31.0371 52.7301C31.4661 52.4631 31.8056 52.0696 32.0556 51.5497C32.3084 51.0298 32.4348 50.392 32.4348 49.6364ZM37.5698 54.1193C36.9959 54.1193 36.5016 54.0142 36.0868 53.804C35.6721 53.5937 35.3525 53.3054 35.128 52.9389C34.9036 52.5724 34.7914 52.1534 34.7914 51.6818C34.7914 51.3182 34.8681 50.9957 35.0215 50.7145C35.1777 50.4304 35.3922 50.1676 35.665 49.9261C35.9405 49.6818 36.2573 49.4375 36.6152 49.1932L37.8766 48.2557C38.1238 48.0937 38.3212 47.9205 38.4689 47.7358C38.6195 47.5511 38.6948 47.3097 38.6948 47.0114C38.6948 46.7898 38.5968 46.5753 38.4007 46.3679C38.2076 46.1605 37.9533 46.0568 37.638 46.0568C37.4164 46.0568 37.2203 46.1136 37.0499 46.2273C36.8823 46.3381 36.7502 46.4801 36.6536 46.6534C36.5598 46.8239 36.513 47 36.513 47.1818C36.513 47.3864 36.5684 47.5938 36.6792 47.804C36.7928 48.0114 36.9363 48.2244 37.1096 48.4432C37.2857 48.6591 37.4675 48.8807 37.655 49.108L41.6607 54H40.4505L37.1436 50.0114C36.8368 49.642 36.5584 49.3068 36.3084 49.0057C36.0584 48.7045 35.8596 48.4077 35.7118 48.1151C35.5641 47.8224 35.4902 47.5057 35.4902 47.1648C35.4902 46.7727 35.5769 46.429 35.7502 46.1335C35.9263 45.8352 36.1721 45.6037 36.4874 45.4389C36.8056 45.2713 37.1777 45.1875 37.6039 45.1875C38.0414 45.1875 38.4178 45.2727 38.7331 45.4432C39.0485 45.6108 39.2914 45.8338 39.4618 46.1122C39.6323 46.3878 39.7175 46.6875 39.7175 47.0114C39.7175 47.429 39.6138 47.7912 39.4064 48.098C39.199 48.4048 38.9164 48.6903 38.5584 48.9545L36.8198 50.25C36.4277 50.5398 36.1621 50.821 36.0229 51.0938C35.8837 51.3665 35.8141 51.5625 35.8141 51.6818C35.8141 51.9545 35.8851 52.2088 36.0272 52.4446C36.1692 52.6804 36.3695 52.8707 36.628 53.0156C36.8865 53.1605 37.1891 53.233 37.5357 53.233C37.8652 53.233 38.1863 53.1634 38.4988 53.0241C38.8113 52.8821 39.0939 52.6776 39.3468 52.4105C39.6025 52.1435 39.8042 51.8224 39.9519 51.4474C40.1025 51.0724 40.1777 50.6506 40.1777 50.1818H41.1493C41.1493 50.7614 41.0826 51.2344 40.949 51.6009C40.8155 51.9673 40.665 52.2543 40.4973 52.4616C40.3297 52.669 40.1948 52.8239 40.0925 52.9261C40.0584 52.9687 40.0272 53.0114 39.9988 53.054C39.9703 53.0966 39.9391 53.1392 39.905 53.1818C39.6238 53.4972 39.2686 53.733 38.8397 53.8892C38.4107 54.0426 37.9874 54.1193 37.5698 54.1193ZM43.2683 54H42.1603L45.3649 45.2727H46.4558L49.6603 54H48.5524L45.9444 46.6534H45.8762L43.2683 54ZM43.6774 50.5909H48.1433V51.5284H43.6774V50.5909Z" fill="#999999"/>
<path d="M37 37C42.5228 37 47 32.5228 47 27C47 21.4772 42.5228 17 37 17C31.4772 17 27 21.4772 27 27C27 32.5228 31.4772 37 37 37Z" fill="#FF616D"/>
<path d="M34.0898 23.9996C34.3249 23.3313 34.789 22.7677 35.3998 22.4087C36.0106 22.0498 36.7287 21.9185 37.427 22.0383C38.1253 22.1581 38.7587 22.5211 39.2149 23.0631C39.6712 23.6051 39.9209 24.2911 39.9198 24.9996C39.9198 26.9996 36.9198 27.9996 36.9198 27.9996" stroke="white" stroke-width="2" stroke-linecap="round" stroke-linejoin="round"/>
<path d="M37 32H37.01" stroke="white" stroke-width="2" stroke-linecap="round" stroke-linejoin="round"/>
</svg>
